<?xml version="1.0" encoding="utf-8"?>
<!-- Generator: Adobe Illustrator 16.0.0, SVG Export Plug-In . SVG Version: 6.00 Build 0)  -->
<!DOCTYPE svg PUBLIC "-//W3C//DTD SVG 1.1//EN" "http://www.w3.org/Graphics/SVG/1.1/DTD/svg11.dtd">
<svg version="1.1" id="Layer_1" xmlns="http://www.w3.org/2000/svg" xmlns:xlink="http://www.w3.org/1999/xlink" x="0px" y="0px"
	 width="128px" height="128px" viewBox="0 0 128 128" enable-background="new 0 0 128 128" xml:space="preserve">
<g>
	<g>
		<rect x="32.405" y="105.002" fill="#282D33" width="63.191" height="4"/>
	</g>
	<g>
		<rect x="32.405" y="18.013" fill="#282D33" width="63.191" height="4"/>
	</g>
	<g>
		<g>
			<rect x="53.278" y="8.792" fill="#282D33" width="21.445" height="4"/>
		</g>
	</g>
	<g>
		<rect x="61.184" y="113.734" fill="#282D33" width="5.63" height="4"/>
	</g>
	<g>
		<rect x="61.263" y="77.902" fill="#282D33" width="5.473" height="4"/>
	</g>
	<g>
		<g>
			<g>
				<path fill="#282D33" d="M34.543,55.567l-2.802-2.854c17.783-17.455,46.726-17.457,64.517-0.005l-2.801,2.855
					C77.211,39.628,50.783,39.629,34.543,55.567z"/>
			</g>
			<g>
				<path fill="#282D33" d="M43.603,64.463l-2.802-2.854c12.792-12.554,33.601-12.556,46.389-0.006l-2.803,2.854
					C73.146,53.424,54.85,53.425,43.603,64.463z"/>
			</g>
			<g>
				<path fill="#282D33" d="M53.151,73.834l-2.802-2.855c7.526-7.387,19.772-7.392,27.297-0.006l-2.801,2.855
					C68.865,67.957,59.133,67.961,53.151,73.834z"/>
			</g>
		</g>
	</g>
	<g>
		<g>
			<path fill="#282D33" d="M92.083,128H35.916c-3.314,0-6.01-2.662-6.01-5.936V59.611h4v62.453c0,1.066,0.901,1.936,2.01,1.936
				h56.167c1.108,0,2.01-0.869,2.01-1.936V59.611h4v62.453C98.093,125.338,95.396,128,92.083,128z"/>
		</g>
		<g>
			<path fill="#282D33" d="M98.094,43.549h-4V5.934c0-1.066-0.901-1.934-2.01-1.934H35.917c-1.108,0-2.01,0.868-2.01,1.934v37.616
				h-4V5.934c0-3.272,2.696-5.934,6.01-5.934h56.167c3.313,0,6.01,2.662,6.01,5.934V43.549z"/>
		</g>
	</g>
</g>
</svg>
