<?xml version="1.0" encoding="utf-8"?>
<!-- Generator: Adobe Illustrator 16.0.0, SVG Export Plug-In . SVG Version: 6.00 Build 0)  -->
<!DOCTYPE svg PUBLIC "-//W3C//DTD SVG 1.1//EN" "http://www.w3.org/Graphics/SVG/1.1/DTD/svg11.dtd">
<svg version="1.1" id="Layer_1" xmlns="http://www.w3.org/2000/svg" xmlns:xlink="http://www.w3.org/1999/xlink" x="0px" y="0px"
	 width="128px" height="128px" viewBox="0 0 128 128" enable-background="new 0 0 128 128" xml:space="preserve">
<g>
	<g>
		<g>
			<g>
				<path fill="#282D33" d="M58.03,102.461c-0.698,0-1.391-0.02-2.081-0.057l0.214-3.988c0.619,0.033,1.24,0.049,1.867,0.049
					V102.461z"/>
			</g>
			<g>
				<path fill="#282D33" d="M51.704,101.945c-1.425-0.232-2.845-0.549-4.221-0.938l1.087-3.846c1.231,0.35,2.504,0.633,3.781,0.842
					L51.704,101.945z M43.396,99.605c-1.324-0.541-2.637-1.162-3.903-1.852l1.908-3.508c1.137,0.617,2.315,1.176,3.503,1.66
					L43.396,99.605z M35.818,95.48c-1.176-0.82-2.32-1.717-3.398-2.662l2.633-3.004c0.968,0.85,1.995,1.654,3.052,2.393
					L35.818,95.48z M29.336,89.801c-0.97-1.061-1.89-2.184-2.734-3.338l3.224-2.357c0.758,1.037,1.585,2.045,2.457,2.998
					L29.336,89.801z M24.25,82.848c-0.715-1.242-1.369-2.539-1.942-3.852l3.66-1.6c0.516,1.18,1.103,2.344,1.744,3.459L24.25,82.848
					z M20.8,74.951c-0.426-1.369-0.78-2.777-1.053-4.186l3.921-0.762c0.246,1.266,0.564,2.531,0.946,3.76L20.8,74.951z
					 M19.158,66.49c-0.09-1.088-0.135-2.194-0.135-3.289c0-0.341,0.004-0.682,0.013-1.021l3.994,0.103
					c-0.008,0.305-0.012,0.611-0.012,0.918c0,0.985,0.041,1.982,0.122,2.96L19.158,66.49z M23.337,58.416l-3.958-0.533
					c0.191-1.422,0.463-2.848,0.809-4.238l3.876,0.963C23.754,55.857,23.509,57.138,23.337,58.416z M25.205,50.901l-3.747-1.384
					c0.498-1.346,1.075-2.679,1.718-3.962l3.571,1.789C26.17,48.496,25.652,49.693,25.205,50.901z M28.672,43.977l-3.354-2.169
					c0.778-1.204,1.632-2.378,2.539-3.491l3.096,2.524C30.139,41.841,29.372,42.896,28.672,43.977z M33.565,37.975l-2.802-2.848
					c1.024-1.007,2.114-1.967,3.238-2.853l2.473,3.138C35.463,36.207,34.484,37.07,33.565,37.975z M79.604,35.426
					c-1.013-0.799-2.08-1.55-3.169-2.229l2.112-3.39c1.215,0.757,2.402,1.593,3.532,2.484L79.604,35.426z M39.645,33.185
					l-2.111-3.391c1.22-0.76,2.494-1.458,3.785-2.075l1.722,3.604C41.882,31.876,40.739,32.503,39.645,33.185z M73.036,31.332
					c-1.159-0.556-2.364-1.051-3.581-1.474l1.312-3.773c1.357,0.472,2.702,1.025,3.996,1.645L73.036,31.332z M46.623,29.851
					l-1.309-3.774c1.355-0.47,2.753-0.868,4.153-1.185l0.88,3.897C49.091,29.072,47.838,29.43,46.623,29.851z M65.731,28.793
					c-1.255-0.283-2.541-0.499-3.823-0.641l0.441-3.97c1.429,0.158,2.862,0.399,4.261,0.714L65.731,28.793z M54.166,28.151
					l-0.438-3.97c1.419-0.157,2.867-0.237,4.303-0.237l0.006,3.995C56.74,27.938,55.44,28.01,54.166,28.151z"/>
			</g>
			<g>
				<path fill="#282D33" d="M82.785,38.263c-0.441-0.442-0.893-0.873-1.354-1.292l2.684-2.959c0.511,0.464,1.014,0.942,1.501,1.432
					L82.785,38.263z"/>
			</g>
		</g>
		<g>
			<polygon fill="#282D33" points="58.271,65.898 43.797,51.146 46.648,48.348 58.272,60.195 75.924,42.208 78.775,45.006 			"/>
		</g>
		<g>
			<g>
				<path fill="#282D33" d="M95.028,122.086H69.671l-0.024-1.973c-0.004-0.297-0.026-7.354,5.25-15.145
					c2.239-3.309,5.637-6.123,8.923-8.846c3.526-2.92,7.17-5.939,7.17-8.113v-1.537c0-5.268-4.248-9.555-9.47-9.555
					c-5.225,0-9.475,4.287-9.475,9.555H68.05c0-7.471,6.043-13.549,13.47-13.549c7.424,0,13.465,6.078,13.465,13.549v1.537
					c0,4.053-3.993,7.359-8.616,11.189c-3.07,2.543-6.244,5.172-8.164,8.008c-3.005,4.438-4.03,8.557-4.382,10.885h21.206V122.086z"
					/>
			</g>
			<g>
				<rect x="115.972" y="73.381" fill="#282D33" width="3.994" height="49.273"/>
			</g>
			<g>
				<polygon fill="#282D33" points="127.826,106.945 96.965,106.945 115.897,73.928 119.363,75.914 103.862,102.951 
					127.826,102.951 				"/>
			</g>
		</g>
	</g>
	<g>
		<g>
			<path fill="#282D33" d="M57.795,121.689C25.927,121.689,0,95.594,0,63.516C0,31.441,25.927,5.345,57.795,5.345
				c31.866,0,57.791,26.096,57.791,58.171h-3.994c0-29.873-24.134-54.176-53.796-54.176C28.13,9.34,3.995,33.643,3.995,63.516
				c0,29.875,24.135,54.179,53.801,54.179V121.689z"/>
		</g>
		<g>
			<polygon fill="#282D33" points="112.441,65.902 96.883,50.238 99.717,47.424 112.441,60.234 125.166,47.423 128,50.239 			"/>
		</g>
	</g>
</g>
</svg>
