<?xml version="1.0" encoding="utf-8"?>
<!-- Generator: Adobe Illustrator 16.0.0, SVG Export Plug-In . SVG Version: 6.00 Build 0)  -->
<!DOCTYPE svg PUBLIC "-//W3C//DTD SVG 1.1//EN" "http://www.w3.org/Graphics/SVG/1.1/DTD/svg11.dtd">
<svg version="1.1" id="Layer_1" xmlns="http://www.w3.org/2000/svg" xmlns:xlink="http://www.w3.org/1999/xlink" x="0px" y="0px"
	 width="128px" height="128px" viewBox="0 0 128 128" enable-background="new 0 0 128 128" xml:space="preserve">
<g>
	<g>
		<rect x="1.935" y="97.056" fill="#282D33" width="17.146" height="4.002"/>
	</g>
	<g>
		<rect x="52.606" y="97.061" fill="#282D33" width="71.135" height="4.002"/>
	</g>
	<g>
		<rect x="11.315" y="110.129" fill="#282D33" width="71.136" height="4.002"/>
	</g>
	<g>
		<g>
			<path fill="#282D33" d="M105.133,49.938c10.439,0,18.93,8.622,18.93,19.222s-8.49,19.225-18.93,19.225
				c-10.438,0-18.928-8.625-18.928-19.225S94.695,49.938,105.133,49.938 M105.133,46c-12.63,0-22.865,10.371-22.865,23.16
				c0,12.79,10.235,23.162,22.865,23.162S128,81.95,128,69.16C128,56.371,117.763,46,105.133,46L105.133,46z"/>
		</g>
		<g>
			<path fill="#282D33" d="M31.758,49.938c10.438,0,18.929,8.622,18.929,19.222s-8.491,19.225-18.929,19.225
				S12.83,79.76,12.83,69.16C12.829,58.561,21.32,49.938,31.758,49.938 M31.758,46C19.126,46,8.892,56.371,8.892,69.16
				c0,12.79,10.235,23.162,22.866,23.162c12.63,0,22.867-10.372,22.867-23.162C54.625,56.371,44.388,46,31.758,46L31.758,46z"/>
		</g>
		<g>
			<path fill="#282D33" d="M4.002,69.163H0c0-17.725,14.247-32.146,31.758-32.146c7.766,0,15.244,2.869,21.056,8.079l-2.671,2.98
				c-5.077-4.551-11.606-7.058-18.385-7.058C16.453,41.02,4.002,53.645,4.002,69.163z"/>
		</g>
		<g>
			<path fill="#282D33" d="M123.369,48.077c-5.077-4.551-11.606-7.058-18.386-7.058c-6.333,0-12.299,2.107-17.25,6.094l-2.51-3.118
				c5.671-4.564,12.504-6.978,19.76-6.978c7.767,0,15.244,2.869,21.057,8.079L123.369,48.077z"/>
		</g>
		<g>
			<path fill="#282D33" d="M68.406,71.917H32.375l-1.807-2.861l19.398-40.712l1.807-1.14h36.032v4.002H55.102l15.163,37.968
				L68.406,71.917z M35.545,67.915h29.908L51.815,33.768L35.545,67.915z"/>
		</g>
		<g>
			<polygon fill="#282D33" points="105.387,70.736 81.661,17.872 73.253,17.872 73.253,13.869 84.253,13.869 109.037,69.097 			"/>
		</g>
		<g>
			<rect x="46.404" y="20.029" fill="#282D33" width="11.784" height="4.002"/>
		</g>
	</g>
	<g>
		
			<rect x="76.102" y="26.914" transform="matrix(0.8944 0.4472 -0.4472 0.8944 29.9837 -29.7971)" fill="#282D33" width="4.003" height="43.388"/>
	</g>
</g>
</svg>
