<?xml version="1.0" encoding="utf-8"?>
<!-- Generator: Adobe Illustrator 16.0.0, SVG Export Plug-In . SVG Version: 6.00 Build 0)  -->
<!DOCTYPE svg PUBLIC "-//W3C//DTD SVG 1.1//EN" "http://www.w3.org/Graphics/SVG/1.1/DTD/svg11.dtd">
<svg version="1.1" id="Layer_1" xmlns="http://www.w3.org/2000/svg" xmlns:xlink="http://www.w3.org/1999/xlink" x="0px" y="0px"
	 width="128px" height="128px" viewBox="0 0 128 128" enable-background="new 0 0 128 128" xml:space="preserve">
<g>
	<g>
		<g>
			<path fill="#282D33" d="M22.354,95.785c-0.47-0.494-0.932-0.995-1.383-1.502l2.996-2.665c0.421,0.474,0.852,0.94,1.289,1.4
				L22.354,95.785z"/>
		</g>
		<g>
			<path fill="#282D33" d="M108.317,92.828l-3.086-2.559c0.468-0.564,0.923-1.137,1.366-1.717l3.188,2.432
				C109.311,91.607,108.82,92.223,108.317,92.828z M18.328,91.086c-0.852-1.11-1.673-2.267-2.441-3.437l3.353-2.2
				c0.714,1.089,1.479,2.163,2.271,3.195L18.328,91.086z M112.217,87.543l-3.357-2.192c0.71-1.087,1.388-2.217,2.016-3.356
				l3.513,1.933C113.712,85.155,112.981,86.371,112.217,87.543z M13.706,84.042c-0.679-1.224-1.32-2.489-1.907-3.76l3.641-1.682
				c0.545,1.182,1.142,2.357,1.773,3.495L13.706,84.042z M116.282,80.16l-3.647-1.666c0.542-1.183,1.045-2.401,1.496-3.622
				l3.761,1.392C117.405,77.578,116.864,78.889,116.282,80.16z M10.176,76.388c-0.49-1.313-0.937-2.659-1.327-4.003l3.852-1.118
				c0.362,1.248,0.776,2.498,1.231,3.717L10.176,76.388z M119.206,72.257l-3.854-1.107c0.358-1.247,0.674-2.526,0.937-3.802
				l3.928,0.813C119.932,69.535,119.592,70.913,119.206,72.257z M7.827,68.292c-0.288-1.368-0.527-2.766-0.712-4.157l3.974-0.529
				c0.172,1.292,0.395,2.59,0.662,3.861L7.827,68.292z M120.915,64l-3.977-0.517c0.167-1.288,0.288-2.6,0.358-3.9l4.004,0.216
				C121.225,61.199,121.095,62.613,120.915,64z M6.719,59.936c-0.061-1.047-0.09-2.11-0.09-3.159c0-0.354,0.003-0.707,0.01-1.059
				l4.009,0.075c-0.006,0.327-0.009,0.656-0.009,0.984c0,0.974,0.027,1.96,0.083,2.932L6.719,59.936z M117.361,55.667
				c-0.027-1.307-0.104-2.622-0.229-3.911l3.992-0.381c0.133,1.386,0.216,2.801,0.246,4.206L117.361,55.667z M10.866,51.883
				L6.874,51.51c0.13-1.396,0.315-2.803,0.55-4.18l3.953,0.672C11.159,49.28,10.987,50.586,10.866,51.883z M116.614,47.877
				c-0.222-1.285-0.494-2.573-0.811-3.83l3.889-0.978c0.341,1.354,0.634,2.742,0.873,4.126L116.614,47.877z M12.178,44.17
				l-3.892-0.969c0.339-1.358,0.733-2.721,1.173-4.05l3.807,1.259C12.857,41.644,12.491,42.909,12.178,44.17z M114.707,40.291
				c-0.413-1.236-0.877-2.468-1.377-3.663l3.698-1.55c0.538,1.286,1.037,2.612,1.481,3.941L114.707,40.291z M14.636,36.738
				l-3.701-1.542c0.538-1.292,1.133-2.58,1.769-3.831l3.575,1.815C15.688,34.341,15.136,35.539,14.636,36.738z M111.684,33.08
				c-0.59-1.155-1.232-2.305-1.91-3.419l3.427-2.083c0.728,1.198,1.419,2.435,2.055,3.677L111.684,33.08z M18.183,29.754
				l-3.431-2.078c0.726-1.197,1.505-2.382,2.317-3.523l3.267,2.325C19.58,27.54,18.856,28.642,18.183,29.754z M107.613,26.392
				c-0.752-1.053-1.558-2.097-2.394-3.101l3.082-2.566c0.898,1.08,1.766,2.203,2.575,3.336L107.613,26.392z M22.726,23.372
				l-3.088-2.559c0.894-1.078,1.839-2.135,2.809-3.144l2.89,2.78C24.434,21.386,23.556,22.369,22.726,23.372z M102.604,20.374
				c-0.906-0.938-1.856-1.854-2.825-2.72l2.675-2.988c1.041,0.931,2.062,1.915,3.035,2.923L102.604,20.374z M28.153,17.724
				l-2.68-2.983c1.04-0.934,2.128-1.842,3.234-2.699l2.455,3.171C30.134,16.01,29.121,16.854,28.153,17.724z M96.764,15.147
				c-1.032-0.795-2.105-1.562-3.192-2.28l2.211-3.346c1.166,0.771,2.32,1.595,3.429,2.45L96.764,15.147z M34.347,12.928L32.13,9.587
				c1.163-0.772,2.371-1.512,3.592-2.198l1.967,3.494C36.553,11.522,35.43,12.21,34.347,12.928z M90.224,10.827
				c-1.138-0.636-2.313-1.239-3.492-1.79l1.697-3.633c1.269,0.593,2.531,1.24,3.753,1.924L90.224,10.827z M41.169,9.087
				l-1.706-3.628c1.268-0.596,2.57-1.151,3.873-1.65l1.435,3.745C43.56,8.017,42.348,8.534,41.169,9.087z M83.119,7.507
				c-1.22-0.464-2.469-0.888-3.712-1.259l1.147-3.842c1.336,0.399,2.68,0.854,3.99,1.353L83.119,7.507z M48.479,6.287l-1.155-3.839
				c1.339-0.403,2.711-0.762,4.076-1.066l0.871,3.914C51.001,5.578,49.725,5.911,48.479,6.287z M75.613,5.266
				c-1.269-0.28-2.566-0.516-3.856-0.702l0.574-3.969c1.386,0.2,2.779,0.454,4.144,0.754L75.613,5.266z M56.125,4.583l-0.583-3.966
				c1.385-0.204,2.793-0.358,4.188-0.46l0.291,3.999C58.724,4.25,57.413,4.394,56.125,4.583z M67.859,4.146
				c-1.273-0.09-2.57-0.137-3.856-0.137l-0.051-3.171L63.962,0c1.408,0.004,2.815,0.049,4.181,0.146L67.859,4.146z"/>
		</g>
		<g>
			<path fill="#282D33" d="M105.566,95.903l-2.892-2.778c0.44-0.458,0.871-0.923,1.294-1.394l2.985,2.674
				C106.502,94.911,106.038,95.412,105.566,95.903z"/>
		</g>
	</g>
	<g>
		<path fill="none" d="M28.003,98.396"/>
	</g>
	<g>
		<rect x="61.998" y="97.834" fill="#282D33" width="4.01" height="29.474"/>
	</g>
	<g>
		<path fill="#282D33" d="M83.492,128H71.813v-20.612c0-7.262,5.964-13.169,13.295-13.169h11.683v20.613
			C96.791,122.093,90.825,128,83.492,128z M75.823,123.99h7.669c5.122,0,9.289-4.108,9.289-9.158V98.229h-7.673
			c-5.119,0-9.285,4.109-9.285,9.159V123.99z"/>
	</g>
	<g>
		<path fill="#282D33" d="M56.436,122.27H42.601c-7.329,0-13.292-5.909-13.292-13.172v-9.45h13.829c3.553,0,6.888,1.368,9.396,3.851
			c2.516,2.489,3.899,5.8,3.897,9.322L56.436,122.27z M33.318,103.657v5.44c0,5.052,4.164,9.162,9.282,9.162h9.823l-0.002-5.439
			c0.001-2.445-0.96-4.743-2.708-6.472c-1.753-1.736-4.087-2.691-6.57-2.691H33.318z"/>
	</g>
	<g>
		<g>
			<g>
				<g>
					<path fill="#282D33" d="M78.601,81.857H47.832l-0.125-1.871c-0.203-3.05-0.888-5.485-1.928-6.857
						C35.064,59.494,34.765,46.387,34.765,46.258c0-15.544,12.776-28.19,28.479-28.19c15.704,0,28.481,12.646,28.481,28.19
						c0,0.128-0.301,13.223-11.04,26.898c-1.021,1.342-1.719,3.781-1.947,6.846L78.601,81.857z M51.521,77.848h23.413
						c0.42-3.045,1.284-5.442,2.578-7.144c9.887-12.589,10.203-24.331,10.203-24.446c0-13.333-10.978-24.18-24.472-24.18
						c-13.492,0-24.47,10.847-24.47,24.18c0,0.115,0.309,11.859,10.18,24.421C50.486,72.702,51.199,75.451,51.521,77.848z"/>
				</g>
				<g>
					<g>
						
							<rect x="41.494" y="63.385" transform="matrix(0.135 0.9908 -0.9908 0.135 113.2469 1.0621)" fill="#282D33" width="29.043" height="4.01"/>
					</g>
					<g>
						
							<rect x="68.473" y="50.869" transform="matrix(0.9908 0.1354 -0.1354 0.9908 9.5043 -8.9416)" fill="#282D33" width="4.01" height="29.043"/>
					</g>
				</g>
				<g>
					<polygon fill="#282D33" points="68.193,56.495 66.262,55.235 64.335,56.494 62.143,56.494 60.215,55.236 58.292,56.494 
						56.098,56.493 53.078,54.519 55.272,51.164 57.194,52.42 59.118,51.163 61.311,51.163 63.238,52.421 65.164,51.163 
						67.354,51.162 69.288,52.422 71.22,51.162 73.41,54.521 70.384,56.495 					"/>
				</g>
				<g>
					<rect x="44.709" y="78.155" fill="#282D33" width="37.072" height="4.01"/>
				</g>
				<g>
					<rect x="44.709" y="87.391" fill="#282D33" width="37.072" height="4.01"/>
				</g>
				<g>
					<rect x="55.757" y="96.555" fill="#282D33" width="14.979" height="4.01"/>
				</g>
				<g>
					<rect x="48.023" y="80.513" fill="#282D33" width="4.01" height="6.946"/>
				</g>
			</g>
		</g>
	</g>
</g>
</svg>
