<?xml version="1.0" encoding="utf-8"?>
<!-- Generator: Adobe Illustrator 16.0.0, SVG Export Plug-In . SVG Version: 6.00 Build 0)  -->
<!DOCTYPE svg PUBLIC "-//W3C//DTD SVG 1.1//EN" "http://www.w3.org/Graphics/SVG/1.1/DTD/svg11.dtd">
<svg version="1.1" id="Layer_1" xmlns="http://www.w3.org/2000/svg" xmlns:xlink="http://www.w3.org/1999/xlink" x="0px" y="0px"
	 width="128px" height="128px" viewBox="0 0 128 128" enable-background="new 0 0 128 128" xml:space="preserve">
<g>
	<g>
		<path fill="#282D33" d="M13.399,40.246c-6.604-2.108-11.582-7.642-12.99-14.439c-1.042-5.039-0.078-10.182,2.715-14.483
			c2.798-4.31,7.095-7.264,12.099-8.318c1.289-0.273,2.615-0.412,3.937-0.412c9,0,16.87,6.448,18.713,15.332
			c0.201,0.973,0.328,1.948,0.378,2.901l-3.994,0.211c-0.04-0.752-0.141-1.526-0.301-2.301c-1.46-7.036-7.683-12.143-14.796-12.143
			c-1.044,0-2.09,0.109-3.11,0.326c-3.958,0.833-7.356,3.171-9.571,6.583c-2.216,3.412-2.98,7.494-2.153,11.494
			c1.116,5.386,5.059,9.77,10.29,11.44L13.399,40.246z"/>
	</g>
	<g>
		<path fill="#282D33" d="M19.127,32.411c-2.002,0-3.965-0.582-5.687-1.707c-2.36-1.543-3.977-3.916-4.551-6.681
			c-1.179-5.688,2.458-11.284,8.107-12.474l0.824,3.914c-3.497,0.737-5.747,4.212-5.015,7.747c0.356,1.716,1.359,3.189,2.824,4.146
			c1.442,0.943,3.156,1.27,4.832,0.915l0.825,3.914C20.569,32.335,19.846,32.411,19.127,32.411z"/>
	</g>
	<g>
		<path fill="#282D33" d="M112.741,40.739l-0.814-3.916C118.923,35.367,124,29.077,124,21.866c0-8.42-6.79-15.27-15.136-15.27
			c-8.345,0-15.134,6.85-15.134,15.27h-4c0-10.625,8.583-19.27,19.134-19.27c10.552,0,19.136,8.645,19.136,19.27
			C128,30.962,121.583,38.899,112.741,40.739z"/>
	</g>
	<g>
		<path fill="#282D33" d="M102.258,30.042c-2.459-2.015-3.869-4.995-3.869-8.176c0-5.813,4.699-10.541,10.475-10.541v4
			c-3.57,0-6.475,2.934-6.475,6.541c0,1.978,0.876,3.83,2.404,5.082L102.258,30.042z"/>
	</g>
	<g>
		<path fill="#282D33" d="M74.43,125.406H52.358c-26.115,0-47.362-21.406-47.362-47.719V63.684
			c0-26.313,21.247-47.719,47.362-47.719H74.43c26.114,0,47.359,21.407,47.359,47.719v14.003
			C121.789,104,100.544,125.406,74.43,125.406z M52.358,19.965c-23.91,0-43.362,19.612-43.362,43.719v14.003
			c0,24.106,19.452,43.719,43.362,43.719H74.43c23.908,0,43.359-19.612,43.359-43.719V63.684c0-24.107-19.451-43.719-43.359-43.719
			H52.358z"/>
	</g>
	<g>
		<path fill="#282D33" d="M63.354,110.225c-4.389,0-7.959-3.592-7.959-8.007v-5.906l1.053-0.566
			c2.075-1.115,3.926-2.978,5.354-5.384l1.72-2.901l1.72,2.9c1.387,2.338,3.138,4.156,5.063,5.26l1.006,0.576v6.021
			C71.311,106.633,67.741,110.225,63.354,110.225z M59.395,98.646v3.571c0,2.209,1.776,4.007,3.959,4.007
			c2.182,0,3.957-1.798,3.957-4.007v-3.759c-1.375-0.941-2.654-2.146-3.793-3.569C62.297,96.401,60.906,97.67,59.395,98.646z"/>
	</g>
	<g>
		<g>
			<path fill="#282D33" d="M53.667,99.023c-6.124,0-11.105-5.013-11.105-11.174h4c0,3.956,3.188,7.174,7.105,7.174
				c3.915,0,7.1-3.218,7.1-7.174v-7.582h4v7.582C64.767,94.011,59.787,99.023,53.667,99.023z"/>
		</g>
		<g>
			<path fill="#282D33" d="M73.124,99.023c-6.121,0-11.101-5.013-11.101-11.174v-7.582h4v7.582c0,3.956,3.185,7.174,7.101,7.174
				s7.103-3.218,7.103-7.174h4C84.227,94.011,79.246,99.023,73.124,99.023z"/>
		</g>
	</g>
	<g>
		<path fill="#282D33" d="M66.27,82.461h-5.752c-4.871,0-8.833-3.986-8.833-8.887c0-4.899,3.962-8.885,8.833-8.885h5.752
			c4.872,0,8.836,3.985,8.836,8.885C75.105,78.475,71.142,82.461,66.27,82.461z M60.518,68.689c-2.665,0-4.833,2.191-4.833,4.885
			c0,2.694,2.168,4.887,4.833,4.887h5.752c2.667,0,4.836-2.192,4.836-4.887c0-2.693-2.169-4.885-4.836-4.885H60.518z"/>
	</g>
	<g>
		<g>
			<g>
				<path fill="#282D33" d="M25.906,82.33C25.906,82.33,25.906,82.33,25.906,82.33c-3.275,0-6.233-0.979-8.554-2.829
					c-7.663-6.109-6.622-20.35,2.32-31.746c6.012-7.658,14.292-12.415,21.61-12.415c3.275,0,6.233,0.979,8.554,2.829
					c7.663,6.111,6.621,20.353-2.323,31.748C41.503,77.573,33.224,82.33,25.906,82.33z M41.282,39.34
					c-6.025,0-13.273,4.273-18.464,10.885c-7.59,9.673-8.924,21.404-2.973,26.149c1.628,1.298,3.667,1.956,6.061,1.956
					c6.025,0,13.271-4.271,18.46-10.883c7.593-9.673,8.927-21.404,2.975-26.151C45.714,39.999,43.675,39.34,41.282,39.34z"/>
			</g>
			<g>
				<path fill="#282D33" d="M38.841,55.406c-0.392,0-0.79,0.066-1.18,0.208c-1.813,0.658-2.754,2.676-2.103,4.503
					c0.513,1.437,1.854,2.332,3.289,2.332c0.392,0,0.791-0.067,1.182-0.208c1.814-0.658,2.755-2.675,2.101-4.504
					C41.619,56.298,40.273,55.406,38.841,55.406L38.841,55.406z"/>
			</g>
		</g>
		<g>
			<g>
				<path fill="#282D33" d="M100.883,82.33c-7.318,0-15.599-4.757-21.608-12.414c-8.942-11.395-9.984-25.636-2.322-31.747
					c2.322-1.851,5.28-2.829,8.556-2.829c7.316,0,15.596,4.757,21.607,12.415c8.943,11.393,9.984,25.634,2.321,31.746
					C107.115,81.352,104.157,82.33,100.883,82.33z M85.508,39.34c-2.394,0-4.434,0.658-6.063,1.957
					c-5.95,4.746-4.615,16.477,2.976,26.15c5.189,6.61,12.436,10.883,18.462,10.883c2.393,0,4.432-0.658,6.06-1.956
					c5.952-4.747,4.618-16.477-2.974-26.149C98.778,43.613,91.531,39.34,85.508,39.34z"/>
			</g>
			<g>
				<path fill="#282D33" d="M87.943,55.406c-1.432,0-2.773,0.893-3.286,2.33c-0.651,1.83,0.29,3.846,2.104,4.504
					c0.391,0.141,0.789,0.208,1.182,0.208c1.433,0,2.773-0.895,3.289-2.332c0.647-1.828-0.291-3.845-2.106-4.503
					C88.734,55.472,88.336,55.406,87.943,55.406L87.943,55.406z"/>
			</g>
		</g>
	</g>
</g>
</svg>
